<?xml version="1.0" encoding="UTF-8"?>
<svg xmlns="http://www.w3.org/2000/svg" xmlns:xlink="http://www.w3.org/1999/xlink" version="1.1" viewBox="0 0 137 37">
  <defs>
    <style>
      .cls-1 {
        fill: url(#linear-gradient);
      }

      .cls-2 {
        fill: #ee3342;
      }

      .cls-3 {
        fill: #fff;
      }
    </style>
    <linearGradient id="linear-gradient" x1="68.5" y1="1" x2="68.5" y2="36" gradientTransform="translate(50 87) rotate(-90)" gradientUnits="userSpaceOnUse">
      <stop offset="0" stop-color="#e62229"/>
      <stop offset="1" stop-color="#ae1f25"/>
    </linearGradient>
  </defs>
  <!-- Generator: Adobe Illustrator 28.6.0, SVG Export Plug-In . SVG Version: 1.2.0 Build 709)  -->
  <g>
    <g id="Layer_1">
      <rect class="cls-2" width="137" height="37" rx="4.7" ry="4.7"/>
      <path class="cls-1" d="M54.7-49h27.6c2,0,3.7,1.6,3.7,3.7v127.6c0,2-1.6,3.7-3.7,3.7h-27.6c-2,0-3.7-1.6-3.7-3.7V-45.3c0-2,1.6-3.7,3.7-3.7Z" transform="translate(87 -50) rotate(90)"/>
      <g>
        <polygon class="cls-3" points="35 18.1 21.6 10.4 21.6 25.9 35 18.1"/>
        <g>
          <path class="cls-3" d="M52.8,15.9h-2.1l-1.2-4.5c0-.2-.1-.5-.2-1s-.2-.8-.2-1c0,.2,0,.5-.2,1s-.2.8-.2,1l-1.2,4.5h-2.1l-2.2-8.6h1.8l1.1,4.7c.2.9.3,1.6.4,2.2,0-.2,0-.6.2-1s.2-.8.2-1.1l1.2-4.8h1.7l1.2,4.8c0,.2.1.5.2,1s.1.8.2,1.1c0-.3.1-.7.2-1.1s.2-.8.2-1.1l1.1-4.7h1.8l-2.2,8.6Z"/>
          <path class="cls-3" d="M61.3,15.9l-.6-2h-3.1l-.6,2h-2l3-8.6h2.2l3,8.6h-2ZM60.3,12.3c-.6-1.8-.9-2.9-1-3.1s-.1-.4-.2-.6c-.1.5-.5,1.7-1.1,3.7h2.2Z"/>
          <path class="cls-3" d="M67.7,15.9h-1.8v-7.1h-2.3v-1.5h6.5v1.5h-2.3v7.1Z"/>
          <path class="cls-3" d="M74.9,8.7c-.7,0-1.2.3-1.6.8s-.6,1.2-.6,2.1c0,1.9.7,2.9,2.2,2.9s1.3-.2,2.2-.5v1.5c-.7.3-1.5.4-2.4.4-1.2,0-2.2-.4-2.9-1.1s-1-1.8-1-3.3.2-1.7.5-2.3.8-1.2,1.4-1.5,1.3-.5,2.1-.5,1.7.2,2.5.6l-.6,1.5c-.3-.2-.6-.3-1-.4s-.6-.2-1-.2Z"/>
          <path class="cls-3" d="M86,15.9h-1.8v-3.7h-3.4v3.7h-1.8V7.3h1.8v3.4h3.4v-3.4h1.8v8.6Z"/>
          <path class="cls-3" d="M91.3,15.9V7.3h1.8v7.1h3.5v1.5h-5.3Z"/>
          <path class="cls-3" d="M98,15.9V7.3h1.8v8.6h-1.8Z"/>
          <path class="cls-3" d="M106.9,7.3h1.8l-2.9,8.6h-2l-2.9-8.6h1.8l1.6,5.1c0,.3.2.7.3,1.1s.2.7.2.8c0-.4.2-1,.4-1.9l1.6-5.1Z"/>
          <path class="cls-3" d="M114.7,15.9h-4.9V7.3h4.9v1.5h-3.1v1.9h2.9v1.5h-2.9v2.2h3.1v1.5Z"/>
          <path class="cls-3" d="M50.5,25.5c0,.8-.3,1.4-.8,1.8s-1.3.7-2.3.7-1.7-.2-2.4-.5v-1.7c.6.3,1.1.4,1.5.5s.8.2,1.1.2.7,0,.9-.2.3-.4.3-.7,0-.3-.1-.4-.2-.3-.4-.4-.6-.3-1.1-.6c-.5-.2-.9-.5-1.2-.7s-.5-.5-.6-.8-.2-.7-.2-1.1c0-.8.3-1.4.8-1.8s1.2-.7,2.1-.7.9,0,1.3.2.8.3,1.3.4l-.6,1.4c-.5-.2-.8-.3-1.1-.4s-.6-.1-.9-.1-.6,0-.8.2-.3.4-.3.6,0,.3.1.4.2.2.4.3.5.3,1.2.6c.8.4,1.3.8,1.6,1.2s.4.9.4,1.4Z"/>
          <path class="cls-3" d="M55.3,27.9h-1.8v-7.1h-2.3v-1.5h6.5v1.5h-2.3v7.1Z"/>
          <path class="cls-3" d="M60.8,24.6v3.3h-1.8v-8.6h2.5c1.2,0,2,.2,2.6.6s.8,1.1.8,1.9-.1,1-.4,1.3-.7.7-1.2.9c1.3,1.9,2.1,3.2,2.5,3.7h-2l-2-3.3h-1ZM60.8,23.1h.6c.6,0,1,0,1.3-.3s.4-.5.4-.9-.1-.7-.4-.9-.7-.3-1.3-.3h-.6v2.3Z"/>
          <path class="cls-3" d="M71.8,27.9h-4.9v-8.6h4.9v1.5h-3.1v1.9h2.9v1.5h-2.9v2.2h3.1v1.5Z"/>
          <path class="cls-3" d="M78.8,27.9l-.6-2h-3.1l-.6,2h-2l3-8.6h2.2l3,8.6h-2ZM77.8,24.3c-.6-1.8-.9-2.9-1-3.1s-.1-.4-.2-.6c-.1.5-.5,1.7-1.1,3.7h2.2Z"/>
          <path class="cls-3" d="M85.5,27.9l-2.1-6.7h0c0,1.4.1,2.3.1,2.7v4h-1.6v-8.6h2.5l2,6.6h0l2.2-6.6h2.5v8.6h-1.7v-4.1c0-.2,0-.4,0-.7s0-.9,0-2h0l-2.2,6.7h-1.7Z"/>
          <path class="cls-3" d="M93.2,27.9v-8.6h1.8v8.6h-1.8Z"/>
          <path class="cls-3" d="M104.8,27.9h-2.3l-3.7-6.5h0c0,1.1.1,2,.1,2.4v4h-1.6v-8.6h2.3l3.7,6.4h0c0-1.1,0-1.9,0-2.4v-4.1h1.6v8.6Z"/>
          <path class="cls-3" d="M110.2,23.1h3.4v4.4c-.6.2-1.1.3-1.6.4s-1,.1-1.5.1c-1.3,0-2.3-.4-3-1.1s-1-1.9-1-3.3.4-2.5,1.2-3.2,1.9-1.2,3.3-1.2,1.7.2,2.5.5l-.6,1.5c-.6-.3-1.3-.5-2-.5s-1.4.3-1.9.8-.7,1.2-.7,2.1.2,1.6.6,2.1.9.7,1.7.7.8,0,1.2-.1v-1.8h-1.6v-1.5Z"/>
        </g>
      </g>
    </g>
  </g>
</svg>