<?xml version="1.0" encoding="UTF-8"?>
<svg xmlns="http://www.w3.org/2000/svg" xmlns:xlink="http://www.w3.org/1999/xlink" version="1.1" viewBox="0 0 200 54.2">
  <defs>
    <style>
      .cls-1 {
        fill: url(#linear-gradient);
      }

      .cls-2, .cls-3 {
        fill: #fff;
      }

      .cls-4 {
        opacity: .6;
      }

      .cls-5 {
        fill: #1c2a59;
      }

      .cls-3 {
        font-family: OpenSans-Bold, 'Open Sans';
        font-size: 20.4px;
        font-weight: 700;
      }
    </style>
    <linearGradient id="linear-gradient" x1="0" y1="22.2" x2="198.9" y2="22.2" gradientUnits="userSpaceOnUse">
      <stop offset="0" stop-color="#00589e"/>
      <stop offset="0" stop-color="#00c2f3"/>
      <stop offset=".1" stop-color="#00afe6"/>
      <stop offset=".2" stop-color="#0099d7"/>
      <stop offset=".3" stop-color="#0089cd"/>
      <stop offset=".4" stop-color="#007fc6"/>
      <stop offset=".6" stop-color="#007dc5"/>
    </linearGradient>
  </defs>
  <!-- Generator: Adobe Illustrator 28.6.0, SVG Export Plug-In . SVG Version: 1.2.0 Build 709)  -->
  <g>
    <g id="Isolation_Mode">
      <path class="cls-4" d="M200,34.8H20C3.6,34.8,1.1,46.5,1.1,46.5v-25.9C1.1,10.4,9.4,2.1,19.6,2.1h180.4l-8.7,16.3,8.7,16.3Z"/>
      <g>
        <path class="cls-5" d="M9.8,32.6C4.4,32.6,0,37.5,0,43.4s4.4,10.8,9.8,10.8v-21.5Z"/>
        <path class="cls-1" d="M198.9,32.6H18.9C2.6,32.6,0,44.4,0,44.4v-25.9C0,8.3,8.3,0,18.6,0h180.4l-8.7,16.3,8.7,16.3Z"/>
        <g>
          <text class="cls-3" transform="translate(49.6 23.1)"><tspan x="0" y="0">LIVE RESULT</tspan></text>
          <g>
            <circle class="cls-2" cx="36.6" cy="16.1" r="3.5"/>
            <path class="cls-2" d="M36.6,6.6c-5.2,0-9.5,4.3-9.5,9.5s4.3,9.5,9.5,9.5,9.5-4.3,9.5-9.5-4.3-9.5-9.5-9.5ZM36.6,24.3c-4.5,0-8.2-3.7-8.2-8.2s3.7-8.2,8.2-8.2,8.2,3.7,8.2,8.2-3.7,8.2-8.2,8.2Z"/>
          </g>
        </g>
      </g>
    </g>
  </g>
</svg>