<svg width="35" height="19" viewBox="0 0 35 19" fill="none" xmlns="http://www.w3.org/2000/svg">
<g filter="url(#filter0_d_12_960)">
<rect x="2" y="1" width="31" height="14" rx="2.5" fill="url(#paint0_linear_12_960)" shape-rendering="crispEdges"/>
<rect x="2.33028" y="1.33028" width="30.3394" height="13.3394" rx="2.16972" stroke="#FF3852" stroke-opacity="0.32" stroke-width="0.660551" shape-rendering="crispEdges"/>
<path d="M13.5932 5.18182V11H12.6557L9.91426 7.03693H9.86597V11H8.81199V5.18182H9.75517L12.4938 9.14773H12.5449V5.18182H13.5932ZM14.5817 11V5.18182H18.3658V6.06534H15.6357V7.64489H18.1697V8.52841H15.6357V10.1165H18.3885V11H14.5817ZM20.5055 11L18.8634 5.18182H19.997L21.0453 9.45739H21.0992L22.2186 5.18182H23.2498L24.372 9.46023H24.4231L25.4714 5.18182H26.6049L24.9629 11H23.9231L22.7583 6.91761H22.7129L21.5453 11H20.5055Z" fill="white"/>
</g>
<defs>
<filter id="filter0_d_12_960" x="0.0183485" y="0.33945" width="34.9633" height="17.9633" filterUnits="userSpaceOnUse" color-interpolation-filters="sRGB">
<feFlood flood-opacity="0" result="BackgroundImageFix"/>
<feColorMatrix in="SourceAlpha" type="matrix" values="0 0 0 0 0 0 0 0 0 0 0 0 0 0 0 0 0 0 127 0" result="hardAlpha"/>
<feOffset dy="1.3211"/>
<feGaussianBlur stdDeviation="0.990826"/>
<feComposite in2="hardAlpha" operator="out"/>
<feColorMatrix type="matrix" values="0 0 0 0 0 0 0 0 0 0 0 0 0 0 0 0 0 0 0.15 0"/>
<feBlend mode="normal" in2="BackgroundImageFix" result="effect1_dropShadow_12_960"/>
<feBlend mode="normal" in="SourceGraphic" in2="effect1_dropShadow_12_960" result="shape"/>
</filter>
<linearGradient id="paint0_linear_12_960" x1="17.5" y1="0.999999" x2="30.0058" y2="17.0788" gradientUnits="userSpaceOnUse">
<stop stop-color="#FF3852"/>
<stop offset="1" stop-color="#E3112C"/>
</linearGradient>
</defs>
</svg>
