<?xml version="1.0" encoding="UTF-8"?>
<svg xmlns="http://www.w3.org/2000/svg" version="1.1" viewBox="0 0 60 60">
  <defs>
    <style>
      .cls-1 {
        fill: #ef3f3e;
      }
    </style>
  </defs>
  <!-- Generator: Adobe Illustrator 28.6.0, SVG Export Plug-In . SVG Version: 1.2.0 Build 709)  -->
  <g>
    <g id="Layer_1">
      <path class="cls-1" d="M50.5,50.5h0c5.5-5.5,8.5-12.8,8.5-20.5s-3-15-8.5-20.5C45,4,37.7,1,30,1s-15,3-20.5,8.5C4,15,1,22.3,1,30h0c0,7.7,3,15,8.5,20.5,5.5,5.5,12.8,8.5,20.5,8.5,7.7,0,15-3,20.5-8.5ZM4.5,28.3h18.7c.9,0,1.7-.8,1.7-1.7v-15.8c0-1.2-1.2-2-2.3-1.6-4.9,1.7-9.1,5.2-11.7,9.8-.7,1.1.2,2.6,1.5,2.6h4c.9,0,1.7-.8,1.7-1.7v-1.7s-2.5,0-2.5,0c1.6-2,3.6-3.6,5.9-4.7v11.5s-16.6,0-16.6,0C7.2,13.8,16.7,5.2,28.3,4.5v22c0,.9.8,1.7,1.7,1.7s1.7-.8,1.7-1.7V4.5c11.6.8,21.1,9.3,23.4,20.4h-16.6s0-11.5,0-11.5c2.2,1.2,4.2,2.8,5.9,4.7h-.8c-.9,0-1.7.8-1.7,1.7s.8,1.7,1.7,1.7h4c1.3,0,2.1-1.4,1.5-2.6-2.6-4.6-6.8-8-11.7-9.8-1.1-.4-2.3.4-2.3,1.6v15.8c0,.9.8,1.7,1.7,1.7h18.7c0,.6,0,1.1,0,1.7s0,.9,0,1.3c0,.1,0,.3,0,.4h-18.7c-.9,0-1.7.8-1.7,1.7v15.8c0,1.2,1.2,2,2.3,1.6,4.9-1.7,9.1-5.2,11.7-9.8.7-1.1-.2-2.6-1.5-2.6h-4c-.9,0-1.7.8-1.7,1.7s.8,1.7,1.7,1.7h.8c-1.6,2-3.6,3.6-5.9,4.7v-11.5s16.6,0,16.6,0c-2.3,11.1-11.8,19.7-23.4,20.4v-22c0-.9-.8-1.7-1.7-1.7s-1.7.8-1.7,1.7v22c-11.6-.8-21.1-9.3-23.4-20.4h16.6s0,11.5,0,11.5c-2.2-1.2-4.2-2.8-5.9-4.7h.8c.9,0,1.7-.8,1.7-1.7h0c0-.9-.8-1.7-1.7-1.7h-4c-1,0-1.7.8-1.7,1.7,0,.3,0,.6.2.9,2.6,4.6,6.8,8,11.7,9.8,1.1.4,2.3-.4,2.3-1.6h0s0-15.8,0-15.8h0c0-.9-.8-1.7-1.7-1.7H4.5c0-.6,0-1.1,0-1.7s0-1.1,0-1.7Z"/>
    </g>
  </g>
</svg>