<?xml version="1.0" encoding="UTF-8"?>
<svg xmlns="http://www.w3.org/2000/svg" xmlns:xlink="http://www.w3.org/1999/xlink" version="1.1" viewBox="0 0 71.4 37">
  <defs>
    <style>
      .cls-1 {
        fill: url(#linear-gradient-2);
      }

      .cls-2 {
        fill: url(#linear-gradient);
      }

      .cls-3 {
        fill: #fff;
      }
    </style>
    <linearGradient id="linear-gradient" x1="69.6" y1="22.5" x2="2.4" y2="22.5" gradientUnits="userSpaceOnUse">
      <stop offset="0" stop-color="#fff33b"/>
      <stop offset="0" stop-color="#feee3b"/>
      <stop offset=".1" stop-color="#facc3c"/>
      <stop offset=".2" stop-color="#f7b23d"/>
      <stop offset=".3" stop-color="#f49f3e"/>
      <stop offset=".4" stop-color="#f3933e"/>
      <stop offset=".5" stop-color="#f3903f"/>
      <stop offset=".9" stop-color="#ed683c"/>
      <stop offset="1" stop-color="#e93e3a"/>
    </linearGradient>
    <linearGradient id="linear-gradient-2" x1="1.8" y1="18.5" x2="28.5" y2="18.5" xlink:href="#linear-gradient"/>
  </defs>
  <!-- Generator: Adobe Illustrator 28.6.0, SVG Export Plug-In . SVG Version: 1.2.0 Build 709)  -->
  <g>
    <g id="Layer_1">
      <g>
        <path class="cls-2" d="M15.1,9.9v1.9h41.9c6,0,10.8,4.8,10.8,10.8s-4.8,10.8-10.8,10.8H15.1c-6,0-10.8-4.8-10.8-10.8h-1.9c0,7,5.7,12.7,12.7,12.7h41.9c7,0,12.7-5.7,12.7-12.7s-5.7-12.7-12.7-12.7H15.1"/>
        <path class="cls-1" d="M23.2,12.2c2.2,4.4-.1,5.8-1,6.1s-3.6-.3-2.2-5.8c1.8-7.3-5.8-10.6-6-10.7.1.2,2.8,3.5-2.4,9.4-2.4,2.7-2.5,5.1-2.1,6.7.4,1.6-1.5,2.7-2.8,1.6,0,0,0,0,0,0-1.2-1.1-1.8-3.7-.3-6.6-.1.1-4.6,3-4.6,9.3s6,13,13.3,13h0c7.4,0,13.3-6.2,13.3-13s-5.1-9.9-5.3-10ZM8.6,11.2c0-1.6.8-1.8,1.7-2.6,1.2-1.1.7-2.1,0-3.2.3.5-.6,1.7-1.9,2.5-1.3.8-1.4,2.4.1,3.4ZM23.3,4.4c-1.7,2.4.6,3.2,1.2,5,2.2-2.1-2.1-3.8-1.2-5Z"/>
        <g>
          <path class="cls-3" d="M38.7,21.3v-4.2h2.8v10.8h-2.8v-4.4h-4v4.4h-2.8v-10.8h2.8v4.2h4Z"/>
          <path class="cls-3" d="M54.8,22.3c0,3.5-2.5,6-6,6s-6-2.5-6-6,2.9-5.5,6-5.5,6,2.3,6,5.5ZM45.7,22.4c0,1.9,1.4,3.2,3,3.2s3-1.4,3-3.2-1.4-2.8-3-2.8-3,1.4-3,2.8Z"/>
          <path class="cls-3" d="M60.3,27.9h-2.8v-8.4h-2.3v-2.4h7.4v2.4h-2.3v8.4Z"/>
        </g>
      </g>
    </g>
  </g>
</svg>